<?xml version="1.0" encoding="utf-8"?>
<!-- Svg Vector Icons : http://www.onlinewebfonts.com/icon -->
<!DOCTYPE svg PUBLIC "-//W3C//DTD SVG 1.1//EN" "http://www.w3.org/Graphics/SVG/1.1/DTD/svg11.dtd">
<svg version="1.1" xmlns="http://www.w3.org/2000/svg" xmlns:xlink="http://www.w3.org/1999/xlink" x="0px" y="0px" viewBox="0 0 1000 1000" enable-background="new 0 0 1000 1000" xml:space="preserve">
<metadata> Svg Vector Icons : http://www.onlinewebfonts.com/icon </metadata>
<g><g transform="translate(0.000000,511.000000) scale(0.100000,-0.100000)"><path d="M2425.1,4978.1C1459,4828.7,793.9,4363.5,556,3666.8c-37.9-109.5-40-258.9-40-3792.9v-3679.2l50.5-141c162.1-446.2,532.5-679.9,1275.5-802c200-31.6,477.8-35.8,2873.1-40c2372.2-4.2,2635.3-2.1,2483.7,25.2c-448.3,82.1-858.8,292.6-1185,610.4l-132.6,128.4l-414.7,12.6c-227.3,8.4-921.9,16.8-1540.7,18.9c-618.8,2.1-1395.5,10.5-1726,16.8c-591.5,10.5-602,10.5-715.6,65.2c-446.2,208.4-454.6,568.3-21,789.3c109.5,54.7,134.7,59,505.2,73.7c214.7,8.4,892.4,16.9,1505,16.9c614.6,2.1,1292.4,8.4,1511.3,16.8l395.7,12.6l-16.8,160c-67.4,663,105.2,1239.8,526.2,1747c261,315.7,711.4,597.8,1140.8,711.4c185.2,48.4,252.6,54.7,547.2,54.7c185.2,2.1,376.8-8.4,427.3-21l88.4-23.1l-4.2,2435.3l-6.3,2433.2l-50.5,109.5c-54.7,126.3-214.7,284.2-332.6,334.7c-44.2,18.9-96.8,42.1-115.8,52.6c-21.1,10.5-1126.1,18.9-2504.8,16.8C3096.6,5007.6,2574.6,5001.3,2425.1,4978.1z"/><path d="M7257.8-679.7c-663-126.3-1216.6-585.1-1446-1193.4c-117.9-313.6-151.5-738.8-84.2-1067.1C5872.9-3651.7,6428.5-4226.3,7140-4401c244.2-58.9,618.8-63.1,856.7-8.4c631.4,145.2,1124,566.2,1359.7,1159.8c170.5,431.5,170.5,966.1-2.1,1399.7c-223.1,555.7-715.6,989.3-1292.4,1138.7C7845.1-656.5,7464.1-641.8,7257.8-679.7z M7708.3-1395.3l58.9-50.5l6.3-454.7l6.3-454.6h410.4c461,0,530.4-14.7,587.3-128.4c29.5-56.8,31.6-82.1,12.6-147.3c-42.1-136.8-71.5-145.2-570.4-145.2h-442v-431.5c0-465.2-10.5-519.9-107.3-570.4c-94.7-48.4-164.2-35.8-242.1,42.1l-71.6,71.6v444.1v444.1h-431.5c-275.7,0-448.3,8.4-482,23.1c-82.1,37.9-126.3,149.5-96.8,242.1c44.2,134.7,82.1,145.2,572.5,151.5l437.8,6.3v421c0,439.9,12.6,513.6,98.9,564.1C7525.1-1328,7645.1-1340.6,7708.3-1395.3z"/></g></g>
</svg>